<svg width="42" height="22" fill="none" xmlns="http://www.w3.org/2000/svg"><path fill-rule="evenodd" clip-rule="evenodd" d="M.542 18.02L8.804 7.262l2.26 1.165L16.442 0l3.35 3.855 1.248-.986 4.832 5.917 3.43-3.945 9.586 13.179-9.236-11.206-1.403 4.706 1.286 3.72-8.261-10.982-.09 3.748 4.688 10.014-8.768-15.51 2.533 8.383-3.546-8.159-1.949 5.424.39-3.541L9.66 17.392l.584-5.379L8.22 9.862.542 18.02z" fill="#F9FBFD"/><path fill-rule="evenodd" clip-rule="evenodd" d="M41.665 19.702C28.585 9.511 8.225 23.522 0 18.12c9.043 7.657 30.181-5.287 41.665 1.583z" fill="#F9FBFD"/><path fill-rule="evenodd" clip-rule="evenodd" d="M42 20.504c-10.263-6.31-25.526 2.47-33.349.438 8.477 3.97 24.258-4.826 33.349-.438z" fill="#F9FBFD"/></svg>