<svg width="38" height="20" fill="none" xmlns="http://www.w3.org/2000/svg"><path fill-rule="evenodd" clip-rule="evenodd" d="M.49 16.382l7.475-9.78L10.01 7.66 14.876 0l3.032 3.505 1.128-.897 4.372 5.38L26.511 4.4l8.673 11.98-8.356-10.187-1.27 4.279 1.164 3.382-7.475-9.984-.08 3.407 4.241 9.104-7.933-14.1 2.292 7.62-3.209-7.416-1.762 4.93.352-3.219L8.74 15.811l.528-4.89-1.833-1.956L.49 16.382z" fill="#F9FBFD"/><path fill-rule="evenodd" clip-rule="evenodd" d="M37.697 17.911C25.862 8.646 7.442 21.384 0 16.471c8.182 6.961 27.307-4.806 37.697 1.44z" fill="#F9FBFD"/><path fill-rule="evenodd" clip-rule="evenodd" d="M38 18.64c-9.285-5.736-23.095 2.246-30.173.398 7.67 3.608 21.948-4.387 30.173-.398z" fill="#F9FBFD"/></svg>